# xmcd
#
# Track frame offsets: 
#        150
#        23561
#        40659
#        62270
#        84280
#        106614
#        124304
#        151206
#        175476
#        194564
#        223624
#        239819
#        264323
#        284962
#        307935
#
# Disc length: 4391 seconds
#
# Revision: 0
# Processed by: cddbd v1.5.2PL0 Copyright (c) Steve Scherf et al.
# Submitted via: ExactAudioCopy v1.0b3
#
DISCID=cc11250f
DTITLE=Nhat Truong - 15 TK Tran Thien Thanh
DYEAR=1999
DGENRE=
TTITLE0=Tinh yeu thu nhat
TTITLE1=Bay the ky tinh yeu
TTITLE2=Lau dai tinh ai
TTITLE3=Chuyen hen ho
TTITLE4=Yeu nguoi nhu the do
TTITLE5=Tu do em buon
TTITLE6=Mua Xuan la kho
TTITLE7=Chieu tren pha Tam Giang
TTITLE8=Tam su nguoi linh tre
TTITLE9=Bien man
TTITLE10=Rung la thap
TTITLE11=Nguoi o lai Charlie
TTITLE12=Bong nang
TTITLE13=Trong lan tai ngo
TTITLE14=Con duong buon chung than
EXTD=
EXTT0=
EXTT1=
EXTT2=
EXTT3=
EXTT4=
EXTT5=
EXTT6=
EXTT7=
EXTT8=
EXTT9=
EXTT10=
EXTT11=
EXTT12=
EXTT13=
EXTT14=
PLAYORDER=
